<svg xmlns="http://www.w3.org/2000/svg" viewBox="0 0 750 471">
  <rect width="750" height="471" rx="40" fill="#fff"/>
  <path d="M632.2 70H117.8C90 70 68 92 68 119.8v231.4c0 27.8 22 49.8 49.8 49.8h514.4c27.8 0 49.8-22 49.8-49.8V119.8c0-27.8-22-49.8-49.8-49.8z" fill="#fff"/>
  <path d="M498.7 256.2c0 56.3-45.6 101.9-101.8 101.9h-176V113h176c56.2 0 101.8 45.6 101.8 101.9v41.3z" fill="#007940"/>
  <path d="M529.3 113h-132v245.1h132c56.2 0 101.8-45.6 101.8-101.9v-41.3c0-56.3-45.6-101.9-101.8-101.9z" fill="#1F78A7"/>
  <path d="M498.7 113h-101v245.1h101c56.2 0 101.8-45.6 101.8-101.9v-41.3c0-56.3-45.6-101.9-101.8-101.9z" fill="#E1002A"/>
  <text x="375" y="260" text-anchor="middle" fill="#fff" font-family="Arial,sans-serif" font-weight="bold" font-size="100">JCB</text>
</svg>
