<svg xmlns="http://www.w3.org/2000/svg" viewBox="0 0 512 512">
  <rect width="512" height="512" rx="102.4" fill="#010101"/>
  <path d="M353.1 178.7c-8.9-32.4-27.7-60.2-53.8-79.6-9.7-7.2-20.3-13-31.6-17.2-4-.1-8 .1-12 .6C221.5 87 192 108.9 174 139.3c-6.7 11.3-11.4 23.7-14 36.6-.8 4.3-1.4 8.6-1.7 13v129.3c0 3.1.6 6.1 1.7 8.9 5.8 14.8 17.2 26.1 32.1 31.6 4.1 1.5 8.4 2.4 12.8 2.6h106.7c29.2-3.1 54.8-20.1 69.1-45.9 5.3-9.6 8.8-20.1 10.3-31 .5-3.6.7-7.3.7-11V210.8c-.1-11-2.2-21.9-6.2-32.1-3.8-10.5-9.5-20.2-16.7-28.7l-14.6 27.6c6.5 9.7 10.3 21 10.9 32.7v106.8c-.5 11.7-4.8 22.9-12.2 32.1-10.5 12.9-26.1 20.5-42.7 20.8H228c-12.1-.4-23.6-5.6-32-14.3-.6-.7-1.2-1.4-1.7-2.2V196.2c.5-15.9 6.8-31 17.8-42.6 13.2-13.9 31.8-21.8 51.1-21.7 4.7 0 9.4.5 14 1.5 18.6 4.2 34.7 15.3 44.8 31l31.1-58.7z" fill="#25F4EE"/>
  <path d="M376 178.7c21.2 25.5 32.8 57.5 32.8 90.5V398.3c-.2 7.8-1.7 15.6-4.3 23-8.7 24-27.7 42.9-51.7 51.5-7.2 2.6-14.8 4.2-22.5 4.7H223.6c-14.4-1.6-28-7.6-39-17.2-3.3-2.9-6.3-6.1-9-9.6-9.7-12.6-15-28.1-15-44V269.4c0-2 .1-4 .3-5.9 2.5-29.2 17-56 39.9-73.6 10.9-8.3 23.3-14.5 36.5-18.1 5.7-1.6 11.5-2.6 17.4-3.1" fill="#FE2C55"/>
</svg>
