<svg xmlns="http://www.w3.org/2000/svg" viewBox="0 0 750 471">
  <rect width="750" height="471" rx="40" fill="#fff"/>
  <path d="M278.2 334.2h-49.7l31.1-191.8h49.7L278.2 334.2zm-76.1-191.8l-47.4 131.7-5.6-28.3-16.8-86.7s-2-16.7-23.5-16.7h-78.8l-1 3.3s23.8 4.9 51.6 21.7l42.8 165H222l74.4-190.9h-94.3zm367.6 191.8h43.8l-38.2-191.8H534c-18.8 0-23.3 14.5-23.3 14.5l-66.3 177.3h46.4l9.2-25.5h56.7l5 25.5zm-49.3-60.6l23.3-64.2 13.4 64.2h-36.7zM508.7 181.4l6.3-36.8s-19.6-7.5-40-7.5c-22 0-74.3 9.7-74.3 56.6 0 44.2 61.5 44.7 61.5 67.9 0 23.2-55.1 19-73.3 4.4l-6.6 38.4s19.7 9.6 49.8 9.6c30.2 0 75.8-15.7 75.8-58.5 0-44.5-62-48.6-62-67.9-.1-19.2 42.9-16.7 62.8-6.2z" fill="#1A1F71"/>
  <path d="M131.3 142.4l-16.8-86.7s-2-16.7-23.5-16.7H12.2l-1 3.3s37.3 7.6 73.1 36.1c34.4 27.4 47 63.9 47 63.9" fill="#F7B600"/>
</svg>
